<svg xmlns="http://www.w3.org/2000/svg" width="1440" height="900"><path d="M754,528L696,607L776,593Z" fill="#ebe60a" stroke="#ebe60a" stroke-width="1.51"/><path d="M754,528L679,522L696,607Z" fill="#e9ec0b" stroke="#e9ec0b" stroke-width="1.51"/><path d="M696,607L772,691L776,593Z" fill="#efdb09" stroke="#efdb09" stroke-width="1.51"/><path d="M776,593L845,511L754,528Z" fill="#ebe60a" stroke="#ebe60a" stroke-width="1.51"/><path d="M754,528L693,411L679,522Z" fill="#e5f70c" stroke="#e5f70c" stroke-width="1.51"/><path d="M862,603L845,511L776,593Z" fill="#eede09" stroke="#eede09" stroke-width="1.51"/><path d="M772,691L862,603L776,593Z" fill="#f0d509" stroke="#f0d509" stroke-width="1.51"/><path d="M696,607L683,709L772,691Z" fill="#f0d709" stroke="#f0d709" stroke-width="1.51"/><path d="M587,681L683,709L696,607Z" fill="#f2d109" stroke="#f2d109" stroke-width="1.51"/><path d="M679,522L572,589L696,607Z" fill="#ede10a" stroke="#ede10a" stroke-width="1.51"/><path d="M792,403L693,411L754,528Z" fill="#e3fc0c" stroke="#e3fc0c" stroke-width="1.51"/><path d="M679,522L584,489L572,589Z" fill="#ece40a" stroke="#ece40a" stroke-width="1.51"/><path d="M693,411L584,489L679,522Z" fill="#e7f30b" stroke="#e7f30b" stroke-width="1.51"/><path d="M845,511L792,403L754,528Z" fill="#e7f10b" stroke="#e7f10b" stroke-width="1.51"/><path d="M572,589L587,681L696,607Z" fill="#f1d409" stroke="#f1d409" stroke-width="1.51"/><path d="M969,471L853,420L845,511Z" fill="#ebe90a" stroke="#ebe90a" stroke-width="1.51"/><path d="M845,511L853,420L792,403Z" fill="#e7f20b" stroke="#e7f20b" stroke-width="1.51"/><path d="M683,709L773,773L772,691Z" fill="#f3cb08" stroke="#f3cb08" stroke-width="1.51"/><path d="M772,691L879,726L862,603Z" fill="#f4ca08" stroke="#f4ca08" stroke-width="1.51"/><path d="M690,801L773,773L683,709Z" fill="#f5c608" stroke="#f5c608" stroke-width="1.51"/><path d="M773,773L879,726L772,691Z" fill="#f5c208" stroke="#f5c208" stroke-width="1.51"/><path d="M862,603L964,573L845,511Z" fill="#f0d809" stroke="#f0d809" stroke-width="1.51"/><path d="M538,773L690,801L683,709Z" fill="#f7bd08" stroke="#f7bd08" stroke-width="1.51"/><path d="M953,708L964,573L862,603Z" fill="#f4c708" stroke="#f4c708" stroke-width="1.51"/><path d="M693,411L560,381L584,489Z" fill="#e8ef0b" stroke="#e8ef0b" stroke-width="1.51"/><path d="M792,403L693,328L693,411Z" fill="#e7f20b" stroke="#e7f20b" stroke-width="1.51"/><path d="M773,315L693,328L792,403Z" fill="#eaea0a" stroke="#eaea0a" stroke-width="1.51"/><path d="M584,489L485,526L572,589Z" fill="#efdd09" stroke="#efdd09" stroke-width="1.51"/><path d="M572,589L467,607L587,681Z" fill="#f3cb08" stroke="#f3cb08" stroke-width="1.51"/><path d="M478,395L485,526L584,489Z" fill="#ece50a" stroke="#ece50a" stroke-width="1.51"/><path d="M693,328L560,381L693,411Z" fill="#eaea0a" stroke="#eaea0a" stroke-width="1.51"/><path d="M964,573L969,471L845,511Z" fill="#efdc09" stroke="#efdc09" stroke-width="1.51"/><path d="M896,314L773,315L792,403Z" fill="#ede109" stroke="#ede109" stroke-width="1.51"/><path d="M879,726L953,708L862,603Z" fill="#f6c108" stroke="#f6c108" stroke-width="1.51"/><path d="M875,809L953,708L879,726Z" fill="#f9b408" stroke="#f9b408" stroke-width="1.51"/><path d="M896,314L792,403L853,420Z" fill="#ede50a" stroke="#ede50a" stroke-width="1.51"/><path d="M485,526L467,607L572,589Z" fill="#f2d108" stroke="#f2d108" stroke-width="1.51"/><path d="M587,681L538,773L683,709Z" fill="#f6c108" stroke="#f6c108" stroke-width="1.51"/><path d="M773,773L875,809L879,726Z" fill="#f8b708" stroke="#f8b708" stroke-width="1.51"/><path d="M750,907L875,809L773,773Z" fill="#f9b008" stroke="#f9b008" stroke-width="1.51"/><path d="M474,697L538,773L587,681Z" fill="#f8b908" stroke="#f8b908" stroke-width="1.51"/><path d="M467,607L474,697L587,681Z" fill="#f6c008" stroke="#f6c008" stroke-width="1.51"/><path d="M989,377L896,314L853,420Z" fill="#efdb09" stroke="#efdb09" stroke-width="1.51"/><path d="M560,381L478,395L584,489Z" fill="#ebe60a" stroke="#ebe60a" stroke-width="1.51"/><path d="M364,516L372,607L467,607Z" fill="#f5c408" stroke="#f5c408" stroke-width="1.51"/><path d="M543,310L478,395L560,381Z" fill="#f0da09" stroke="#f0da09" stroke-width="1.51"/><path d="M693,328L543,310L560,381Z" fill="#eede09" stroke="#eede09" stroke-width="1.51"/><path d="M654,202L543,310L693,328Z" fill="#f1d609" stroke="#f1d609" stroke-width="1.51"/><path d="M779,216L693,328L773,315Z" fill="#eedf09" stroke="#eedf09" stroke-width="1.51"/><path d="M969,471L989,377L853,420Z" fill="#ede20a" stroke="#ede20a" stroke-width="1.51"/><path d="M1097,487L989,377L969,471Z" fill="#efdc09" stroke="#efdc09" stroke-width="1.51"/><path d="M1097,487L969,471L964,573Z" fill="#f1d309" stroke="#f1d309" stroke-width="1.51"/><path d="M690,801L750,907L773,773Z" fill="#f8b808" stroke="#f8b808" stroke-width="1.51"/><path d="M639,931L750,907L690,801Z" fill="#faad07" stroke="#faad07" stroke-width="1.51"/><path d="M953,708L1065,618L964,573Z" fill="#f7bf08" stroke="#f7bf08" stroke-width="1.51"/><path d="M1100,719L1065,618L953,708Z" fill="#f9b008" stroke="#f9b008" stroke-width="1.51"/><path d="M875,809L993,793L953,708Z" fill="#faab08" stroke="#faab08" stroke-width="1.51"/><path d="M964,889L993,793L875,809Z" fill="#fb9e08" stroke="#fb9e08" stroke-width="1.51"/><path d="M583,923L639,931L690,801Z" fill="#fba509" stroke="#fba509" stroke-width="1.51"/><path d="M474,697L492,823L538,773Z" fill="#faac08" stroke="#faac08" stroke-width="1.51"/><path d="M896,314L779,216L773,315Z" fill="#f1d609" stroke="#f1d609" stroke-width="1.51"/><path d="M870,191L779,216L896,314Z" fill="#f4ca08" stroke="#f4ca08" stroke-width="1.51"/><path d="M467,607L372,607L474,697Z" fill="#f7bd08" stroke="#f7bd08" stroke-width="1.51"/><path d="M343,795L459,873L492,823Z" fill="#fd9609" stroke="#fd9609" stroke-width="1.51"/><path d="M364,516L467,607L485,526Z" fill="#f3cd08" stroke="#f3cd08" stroke-width="1.51"/><path d="M750,907L850,919L875,809Z" fill="#fba408" stroke="#fba408" stroke-width="1.51"/><path d="M989,377L978,298L896,314Z" fill="#f3cf08" stroke="#f3cf08" stroke-width="1.51"/><path d="M1081,371L978,298L989,377Z" fill="#f3cc08" stroke="#f3cc08" stroke-width="1.51"/><path d="M583,923L690,801L538,773Z" fill="#faab08" stroke="#faab08" stroke-width="1.51"/><path d="M750,907L758,986L850,919Z" fill="#fba408" stroke="#fba408" stroke-width="1.51"/><path d="M478,395L364,516L485,526Z" fill="#efdb09" stroke="#efdb09" stroke-width="1.51"/><path d="M369,402L364,516L478,395Z" fill="#f0da09" stroke="#f0da09" stroke-width="1.51"/><path d="M1065,618L1097,487L964,573Z" fill="#f4c708" stroke="#f4c708" stroke-width="1.51"/><path d="M779,216L654,202L693,328Z" fill="#efd909" stroke="#efd909" stroke-width="1.51"/><path d="M492,823L583,923L538,773Z" fill="#fba208" stroke="#fba208" stroke-width="1.51"/><path d="M543,310L447,315L478,395Z" fill="#f2d108" stroke="#f2d108" stroke-width="1.51"/><path d="M467,179L447,315L543,310Z" fill="#f6c408" stroke="#f6c408" stroke-width="1.51"/><path d="M850,919L964,889L875,809Z" fill="#fc9c08" stroke="#fc9c08" stroke-width="1.51"/><path d="M993,793L1100,719L953,708Z" fill="#fba708" stroke="#fba708" stroke-width="1.51"/><path d="M1080,808L1100,719L993,793Z" fill="#fc9c08" stroke="#fc9c08" stroke-width="1.51"/><path d="M1065,618L1151,588L1097,487Z" fill="#f7be08" stroke="#f7be08" stroke-width="1.51"/><path d="M447,315L369,402L478,395Z" fill="#f3d009" stroke="#f3d009" stroke-width="1.51"/><path d="M1097,487L1081,371L989,377Z" fill="#f2d209" stroke="#f2d209" stroke-width="1.51"/><path d="M978,298L870,191L896,314Z" fill="#f4c808" stroke="#f4c808" stroke-width="1.51"/><path d="M779,216L653,124L654,202Z" fill="#f4cc08" stroke="#f4cc08" stroke-width="1.51"/><path d="M956,172L870,191L978,298Z" fill="#f7bd08" stroke="#f7bd08" stroke-width="1.51"/><path d="M492,823L459,873L583,923Z" fill="#fc9808" stroke="#fc9808" stroke-width="1.51"/><path d="M343,795L492,823L474,697Z" fill="#fba308" stroke="#fba308" stroke-width="1.51"/><path d="M372,607L345,717L474,697Z" fill="#f9b108" stroke="#f9b108" stroke-width="1.51"/><path d="M274,694L345,717L372,607Z" fill="#fba908" stroke="#fba908" stroke-width="1.51"/><path d="M265,617L372,607L364,516Z" fill="#f7bb08" stroke="#f7bb08" stroke-width="1.51"/><path d="M639,931L758,986L750,907Z" fill="#faac08" stroke="#faac08" stroke-width="1.51"/><path d="M850,919L872,1003L964,889Z" fill="#fc9708" stroke="#fc9708" stroke-width="1.51"/><path d="M658,1024L758,986L639,931Z" fill="#faa808" stroke="#faa808" stroke-width="1.51"/><path d="M654,202L552,197L543,310Z" fill="#f4c908" stroke="#f4c908" stroke-width="1.51"/><path d="M239,328L291,430L369,402Z" fill="#f6c408" stroke="#f6c408" stroke-width="1.51"/><path d="M591,118L552,197L654,202Z" fill="#f6bf08" stroke="#f6bf08" stroke-width="1.51"/><path d="M1177,693L1151,588L1065,618Z" fill="#f9ae08" stroke="#f9ae08" stroke-width="1.51"/><path d="M1097,487L1150,403L1081,371Z" fill="#f3cd09" stroke="#f3cd09" stroke-width="1.51"/><path d="M1100,719L1177,693L1065,618Z" fill="#fba808" stroke="#fba808" stroke-width="1.51"/><path d="M964,889L1080,808L993,793Z" fill="#fd9609" stroke="#fd9609" stroke-width="1.51"/><path d="M1151,588L1155,505L1097,487Z" fill="#f5c208" stroke="#f5c208" stroke-width="1.51"/><path d="M345,717L343,795L474,697Z" fill="#fba408" stroke="#fba408" stroke-width="1.51"/><path d="M583,923L542,979L639,931Z" fill="#fc9c08" stroke="#fc9c08" stroke-width="1.51"/><path d="M459,873L542,979L583,923Z" fill="#fd9409" stroke="#fd9409" stroke-width="1.51"/><path d="M482,980L542,979L459,873Z" fill="#fd9009" stroke="#fd9009" stroke-width="1.51"/><path d="M291,430L289,492L364,516Z" fill="#f3cc08" stroke="#f3cc08" stroke-width="1.51"/><path d="M345,717L274,694L343,795Z" fill="#fc9c08" stroke="#fc9c08" stroke-width="1.51"/><path d="M1081,371L1074,278L978,298Z" fill="#f6c208" stroke="#f6c208" stroke-width="1.51"/><path d="M1161,306L1074,278L1081,371Z" fill="#f7bb08" stroke="#f7bb08" stroke-width="1.51"/><path d="M1155,505L1150,403L1097,487Z" fill="#f2ce08" stroke="#f2ce08" stroke-width="1.51"/><path d="M758,986L872,1003L850,919Z" fill="#fb9f08" stroke="#fb9f08" stroke-width="1.51"/><path d="M1186,891L1169,788L1080,808Z" fill="#fe8409" stroke="#fe8409" stroke-width="1.51"/><path d="M777,1098L872,1003L758,986Z" fill="#fba208" stroke="#fba208" stroke-width="1.51"/><path d="M790,110L653,124L779,216Z" fill="#f4c608" stroke="#f4c608" stroke-width="1.51"/><path d="M542,979L658,1024L639,931Z" fill="#fb9f08" stroke="#fb9f08" stroke-width="1.51"/><path d="M870,191L790,110L779,216Z" fill="#f6c208" stroke="#f6c208" stroke-width="1.51"/><path d="M1052,181L956,172L978,298Z" fill="#f8b508" stroke="#f8b508" stroke-width="1.51"/><path d="M1151,588L1245,583L1155,505Z" fill="#f8b608" stroke="#f8b608" stroke-width="1.51"/><path d="M1271,408L1161,306L1150,403Z" fill="#f7bb08" stroke="#f7bb08" stroke-width="1.51"/><path d="M1169,788L1177,693L1100,719Z" fill="#fd9808" stroke="#fd9808" stroke-width="1.51"/><path d="M378,271L369,402L447,315Z" fill="#f5c508" stroke="#f5c508" stroke-width="1.51"/><path d="M369,402L291,430L364,516Z" fill="#f1d509" stroke="#f1d509" stroke-width="1.51"/><path d="M467,179L378,271L447,315Z" fill="#f8bb08" stroke="#f8bb08" stroke-width="1.51"/><path d="M467,179L543,310L552,197Z" fill="#f6c008" stroke="#f6c008" stroke-width="1.51"/><path d="M871,117L790,110L870,191Z" fill="#f8b808" stroke="#f8b808" stroke-width="1.51"/><path d="M169,576L265,617L289,492Z" fill="#f8b408" stroke="#f8b408" stroke-width="1.51"/><path d="M289,492L265,617L364,516Z" fill="#f6bf08" stroke="#f6bf08" stroke-width="1.51"/><path d="M265,617L274,694L372,607Z" fill="#faac08" stroke="#faac08" stroke-width="1.51"/><path d="M486,122L467,179L552,197Z" fill="#f9b207" stroke="#f9b207" stroke-width="1.51"/><path d="M653,124L591,118L654,202Z" fill="#f6be08" stroke="#f6be08" stroke-width="1.51"/><path d="M584,17L591,118L653,124Z" fill="#f9b008" stroke="#f9b008" stroke-width="1.51"/><path d="M956,172L871,117L870,191Z" fill="#f8b608" stroke="#f8b608" stroke-width="1.51"/><path d="M575,1131L664,1135L658,1024Z" fill="#fba108" stroke="#fba108" stroke-width="1.51"/><path d="M369,920L482,980L459,873Z" fill="#fd8909" stroke="#fd8909" stroke-width="1.51"/><path d="M1080,808L1169,788L1100,719Z" fill="#fd9408" stroke="#fd9408" stroke-width="1.51"/><path d="M1082,934L1080,808L964,889Z" fill="#fd8809" stroke="#fd8809" stroke-width="1.51"/><path d="M872,1003L983,1006L964,889Z" fill="#fd9009" stroke="#fd9009" stroke-width="1.51"/><path d="M891,1109L983,1006L872,1003Z" fill="#fc9409" stroke="#fc9409" stroke-width="1.51"/><path d="M343,795L369,920L459,873Z" fill="#fd8a09" stroke="#fd8a09" stroke-width="1.51"/><path d="M254,897L369,920L343,795Z" fill="#fe7f09" stroke="#fe7f09" stroke-width="1.51"/><path d="M983,1006L1082,934L964,889Z" fill="#fe8709" stroke="#fe8709" stroke-width="1.51"/><path d="M1074,278L1052,181L978,298Z" fill="#f8b708" stroke="#f8b708" stroke-width="1.51"/><path d="M1150,403L1161,306L1081,371Z" fill="#f6c008" stroke="#f6c008" stroke-width="1.51"/><path d="M1271,408L1150,403L1155,505Z" fill="#f4c708" stroke="#f4c708" stroke-width="1.51"/><path d="M956,172L997,126L871,117Z" fill="#faac08" stroke="#faac08" stroke-width="1.51"/><path d="M1187,225L1052,181L1074,278Z" fill="#faaa08" stroke="#faaa08" stroke-width="1.51"/><path d="M467,179L349,193L378,271Z" fill="#f9af08" stroke="#f9af08" stroke-width="1.51"/><path d="M591,118L486,122L552,197Z" fill="#f8b308" stroke="#f8b308" stroke-width="1.51"/><path d="M584,17L486,122L591,118Z" fill="#faa908" stroke="#faa908" stroke-width="1.51"/><path d="M1177,693L1245,583L1151,588Z" fill="#faa908" stroke="#faa908" stroke-width="1.51"/><path d="M1288,721L1245,583L1177,693Z" fill="#fc9b08" stroke="#fc9b08" stroke-width="1.51"/><path d="M1052,181L997,126L956,172Z" fill="#faa908" stroke="#faa908" stroke-width="1.51"/><path d="M871,117L791,10L790,110Z" fill="#f9b007" stroke="#f9b007" stroke-width="1.51"/><path d="M658,1024L777,1098L758,986Z" fill="#faab08" stroke="#faab08" stroke-width="1.51"/><path d="M664,1135L777,1098L658,1024Z" fill="#faaa08" stroke="#faaa08" stroke-width="1.51"/><path d="M378,271L239,328L369,402Z" fill="#f7bd08" stroke="#f7bd08" stroke-width="1.51"/><path d="M369,96L349,193L467,179Z" fill="#fba308" stroke="#fba308" stroke-width="1.51"/><path d="M983,1006L1059,1005L1082,934Z" fill="#fe8309" stroke="#fe8309" stroke-width="1.51"/><path d="M1082,934L1186,891L1080,808Z" fill="#fe7d09" stroke="#fe7d09" stroke-width="1.51"/><path d="M971,1106L1059,1005L983,1006Z" fill="#fd8809" stroke="#fd8809" stroke-width="1.51"/><path d="M177,680L247,830L274,694Z" fill="#fd9009" stroke="#fd9009" stroke-width="1.51"/><path d="M274,694L247,830L343,795Z" fill="#fd8f08" stroke="#fd8f08" stroke-width="1.51"/><path d="M261,225L239,328L378,271Z" fill="#f9ae08" stroke="#f9ae08" stroke-width="1.51"/><path d="M291,430L188,475L289,492Z" fill="#f5c708" stroke="#f5c708" stroke-width="1.51"/><path d="M265,617L177,680L274,694Z" fill="#fba008" stroke="#fba008" stroke-width="1.51"/><path d="M143,409L188,475L291,430Z" fill="#f6c308" stroke="#f6c308" stroke-width="1.51"/><path d="M1245,583L1280,486L1155,505Z" fill="#f8b708" stroke="#f8b708" stroke-width="1.51"/><path d="M1169,788L1288,721L1177,693Z" fill="#fd9008" stroke="#fd9008" stroke-width="1.51"/><path d="M1245,583L1346,606L1280,486Z" fill="#faa908" stroke="#faa908" stroke-width="1.51"/><path d="M1189,1019L1186,891L1082,934Z" fill="#ff730a" stroke="#ff730a" stroke-width="1.51"/><path d="M777,1098L891,1109L872,1003Z" fill="#fc9d08" stroke="#fc9d08" stroke-width="1.51"/><path d="M188,475L169,576L289,492Z" fill="#f8ba08" stroke="#f8ba08" stroke-width="1.51"/><path d="M1280,486L1271,408L1155,505Z" fill="#f6c208" stroke="#f6c208" stroke-width="1.51"/><path d="M1161,306L1187,225L1074,278Z" fill="#faad08" stroke="#faad08" stroke-width="1.51"/><path d="M169,576L177,680L265,617Z" fill="#fba308" stroke="#fba308" stroke-width="1.51"/><path d="M790,110L791,10L653,124Z" fill="#f8b907" stroke="#f8b907" stroke-width="1.51"/><path d="M843,-8L791,10L871,117Z" fill="#fba608" stroke="#fba608" stroke-width="1.51"/><path d="M575,1131L658,1024L542,979Z" fill="#fc9c08" stroke="#fc9c08" stroke-width="1.51"/><path d="M777,1098L664,1135L891,1109Z" fill="#fba508" stroke="#fba508" stroke-width="1.51"/><path d="M575,1131L542,979L472,1099Z" fill="#fd9409" stroke="#fd9409" stroke-width="1.51"/><path d="M1282,301L1187,225L1161,306Z" fill="#faa608" stroke="#faa608" stroke-width="1.51"/><path d="M1052,181L1083,84L997,126Z" fill="#fc9e08" stroke="#fc9e08" stroke-width="1.51"/><path d="M980,-12L843,-8L871,117Z" fill="#fc9d08" stroke="#fc9d08" stroke-width="1.51"/><path d="M648,-18L584,17L653,124Z" fill="#faa908" stroke="#faa908" stroke-width="1.51"/><path d="M486,122L369,96L467,179Z" fill="#fba408" stroke="#fba408" stroke-width="1.51"/><path d="M369,920L343,997L482,980Z" fill="#fe8309" stroke="#fe8309" stroke-width="1.51"/><path d="M254,897L343,997L369,920Z" fill="#fe780a" stroke="#fe780a" stroke-width="1.51"/><path d="M1293,827L1288,721L1169,788Z" fill="#fe8209" stroke="#fe8209" stroke-width="1.51"/><path d="M247,830L254,897L343,795Z" fill="#fe8009" stroke="#fe8009" stroke-width="1.51"/><path d="M171,873L254,897L247,830Z" fill="#fe720a" stroke="#fe720a" stroke-width="1.51"/><path d="M472,1099L542,979L482,980Z" fill="#fd9009" stroke="#fd9009" stroke-width="1.51"/><path d="M239,328L143,409L291,430Z" fill="#f7bb08" stroke="#f7bb08" stroke-width="1.51"/><path d="M349,193L261,225L378,271Z" fill="#faaa08" stroke="#faaa08" stroke-width="1.51"/><path d="M274,95L261,225L349,193Z" fill="#fc9a08" stroke="#fc9a08" stroke-width="1.51"/><path d="M1270,883L1169,788L1186,891Z" fill="#fe760a" stroke="#fe760a" stroke-width="1.51"/><path d="M891,1109L971,1106L983,1006Z" fill="#fd8f09" stroke="#fd8f09" stroke-width="1.51"/><path d="M1103,1135L971,1106L891,1109Z" fill="#fe8a09" stroke="#fe8a09" stroke-width="1.51"/><path d="M343,997L472,1099L482,980Z" fill="#fe8809" stroke="#fe8809" stroke-width="1.51"/><path d="M791,10L648,-18L653,124Z" fill="#f9b108" stroke="#f9b108" stroke-width="1.51"/><path d="M980,-12L871,117L997,126Z" fill="#fb9f08" stroke="#fb9f08" stroke-width="1.51"/><path d="M744,-80L648,-18L791,10Z" fill="#faab08" stroke="#faab08" stroke-width="1.51"/><path d="M449,7L486,122L584,17Z" fill="#fc9c08" stroke="#fc9c08" stroke-width="1.51"/><path d="M449,7L369,96L486,122Z" fill="#fc9809" stroke="#fc9809" stroke-width="1.51"/><path d="M1187,225L1083,84L1052,181Z" fill="#fc9d08" stroke="#fc9d08" stroke-width="1.51"/><path d="M188,475L67,520L169,576Z" fill="#f9b008" stroke="#f9b008" stroke-width="1.51"/><path d="M81,711L146,815L177,680Z" fill="#fe8309" stroke="#fe8309" stroke-width="1.51"/><path d="M146,302L143,409L239,328Z" fill="#f9ae08" stroke="#f9ae08" stroke-width="1.51"/><path d="M1187,225L1172,71L1083,84Z" fill="#fd9008" stroke="#fd9008" stroke-width="1.51"/><path d="M1271,408L1282,301L1161,306Z" fill="#f9af08" stroke="#f9af08" stroke-width="1.51"/><path d="M1362,396L1282,301L1271,408Z" fill="#faad08" stroke="#faad08" stroke-width="1.51"/><path d="M1362,396L1271,408L1280,486Z" fill="#f8b908" stroke="#f8b908" stroke-width="1.51"/><path d="M1288,721L1346,606L1245,583Z" fill="#fc9908" stroke="#fc9908" stroke-width="1.51"/><path d="M1270,883L1293,827L1169,788Z" fill="#ff750a" stroke="#ff750a" stroke-width="1.51"/><path d="M1288,721L1350,728L1346,606Z" fill="#fd8b09" stroke="#fd8b09" stroke-width="1.51"/><path d="M1270,883L1186,891L1292,1002Z" fill="#ff640b" stroke="#ff640b" stroke-width="1.51"/><path d="M1189,1019L1082,934L1059,1005Z" fill="#ff7a0a" stroke="#ff7a0a" stroke-width="1.51"/><path d="M554,-119L449,7L584,17Z" fill="#fd9409" stroke="#fd9409" stroke-width="1.51"/><path d="M238,1029L347,1094L343,997Z" fill="#fe770a" stroke="#fe770a" stroke-width="1.51"/><path d="M177,680L146,815L247,830Z" fill="#fe8209" stroke="#fe8209" stroke-width="1.51"/><path d="M81,711L177,680L64,604Z" fill="#fd8e09" stroke="#fd8e09" stroke-width="1.51"/><path d="M1083,84L980,-12L997,126Z" fill="#fd9409" stroke="#fd9409" stroke-width="1.51"/><path d="M842,-94L744,-80L791,10Z" fill="#fba408" stroke="#fba408" stroke-width="1.51"/><path d="M146,815L171,873L247,830Z" fill="#ff730a" stroke="#ff730a" stroke-width="1.51"/><path d="M343,997L347,1094L472,1099Z" fill="#fe8209" stroke="#fe8209" stroke-width="1.51"/><path d="M1393,828L1350,728L1293,827Z" fill="#ff700a" stroke="#ff700a" stroke-width="1.51"/><path d="M1293,827L1350,728L1288,721Z" fill="#fe7d09" stroke="#fe7d09" stroke-width="1.51"/><path d="M1103,1135L1189,1019L1059,1005Z" fill="#fe780a" stroke="#fe780a" stroke-width="1.51"/><path d="M170,211L146,302L239,328Z" fill="#fba108" stroke="#fba108" stroke-width="1.51"/><path d="M170,211L239,328L261,225Z" fill="#fca208" stroke="#fca208" stroke-width="1.51"/><path d="M274,95L349,193L369,96Z" fill="#fd9508" stroke="#fd9508" stroke-width="1.51"/><path d="M238,1029L343,997L254,897Z" fill="#ff720a" stroke="#ff720a" stroke-width="1.51"/><path d="M472,1099L269,1132L575,1131Z" fill="#fd8909" stroke="#fd8909" stroke-width="1.51"/><path d="M842,-94L791,10L843,-8Z" fill="#fb9f08" stroke="#fb9f08" stroke-width="1.51"/><path d="M648,-18L554,-119L584,17Z" fill="#fc9d08" stroke="#fc9d08" stroke-width="1.51"/><path d="M1404,475L1280,486L1346,606Z" fill="#faaa08" stroke="#faaa08" stroke-width="1.51"/><path d="M1404,475L1362,396L1280,486Z" fill="#f8b708" stroke="#f8b708" stroke-width="1.51"/><path d="M1282,301L1284,217L1187,225Z" fill="#fc9b08" stroke="#fc9b08" stroke-width="1.51"/><path d="M1083,84L1097,20L980,-12Z" fill="#fe8809" stroke="#fe8809" stroke-width="1.51"/><path d="M1367,285L1284,217L1282,301Z" fill="#fc9808" stroke="#fc9808" stroke-width="1.51"/><path d="M287,27L274,95L369,96Z" fill="#fe8709" stroke="#fe8709" stroke-width="1.51"/><path d="M980,-12L842,-94L843,-8Z" fill="#fc9708" stroke="#fc9708" stroke-width="1.51"/><path d="M1172,71L1097,20L1083,84Z" fill="#fe8609" stroke="#fe8609" stroke-width="1.51"/><path d="M64,604L177,680L169,576Z" fill="#fc9b08" stroke="#fc9b08" stroke-width="1.51"/><path d="M80,911L187,990L171,873Z" fill="#ff5d0b" stroke="#ff5d0b" stroke-width="1.51"/><path d="M67,520L188,475L143,409Z" fill="#f8b907" stroke="#f8b907" stroke-width="1.51"/><path d="M449,7L382,6L369,96Z" fill="#fd8b09" stroke="#fd8b09" stroke-width="1.51"/><path d="M386,-99L382,6L449,7Z" fill="#fe8409" stroke="#fe8409" stroke-width="1.51"/><path d="M51,428L67,520L143,409Z" fill="#f8b608" stroke="#f8b608" stroke-width="1.51"/><path d="M34,296L51,428L143,409Z" fill="#faa708" stroke="#faa708" stroke-width="1.51"/><path d="M178,121L170,211L261,225Z" fill="#fd9108" stroke="#fd9108" stroke-width="1.51"/><path d="M1291,89L1172,71L1187,225Z" fill="#fe8809" stroke="#fe8809" stroke-width="1.51"/><path d="M67,520L64,604L169,576Z" fill="#fba208" stroke="#fba208" stroke-width="1.51"/><path d="M187,990L238,1029L254,897Z" fill="#ff6a0b" stroke="#ff6a0b" stroke-width="1.51"/><path d="M187,990L254,897L171,873Z" fill="#ff660b" stroke="#ff660b" stroke-width="1.51"/><path d="M971,1106L1103,1135L1059,1005Z" fill="#fe8309" stroke="#fe8309" stroke-width="1.51"/><path d="M664,1135L1103,1135L891,1109Z" fill="#fc9808" stroke="#fc9808" stroke-width="1.51"/><path d="M975,-107L842,-94L980,-12Z" fill="#fd9208" stroke="#fd9208" stroke-width="1.51"/><path d="M1362,396L1367,285L1282,301Z" fill="#fba108" stroke="#fba108" stroke-width="1.51"/><path d="M1477,604L1404,475L1346,606Z" fill="#fc9a08" stroke="#fc9a08" stroke-width="1.51"/><path d="M80,911L171,873L146,815Z" fill="#ff640b" stroke="#ff640b" stroke-width="1.51"/><path d="M1292,1002L1353,874L1270,883Z" fill="#ff5b0b" stroke="#ff5b0b" stroke-width="1.51"/><path d="M1270,883L1353,874L1293,827Z" fill="#ff660b" stroke="#ff660b" stroke-width="1.51"/><path d="M1350,728L1454,710L1346,606Z" fill="#fe8409" stroke="#fe8409" stroke-width="1.51"/><path d="M1292,1002L1186,891L1189,1019Z" fill="#ff690b" stroke="#ff690b" stroke-width="1.51"/><path d="M67,520L-26,517L64,604Z" fill="#fc9d08" stroke="#fc9d08" stroke-width="1.51"/><path d="M34,296L143,409L146,302Z" fill="#fba308" stroke="#fba308" stroke-width="1.51"/><path d="M-47,731L81,711L64,604Z" fill="#fe8109" stroke="#fe8109" stroke-width="1.51"/><path d="M-47,731L74,799L81,711Z" fill="#ff720a" stroke="#ff720a" stroke-width="1.51"/><path d="M81,711L74,799L146,815Z" fill="#ff750a" stroke="#ff750a" stroke-width="1.51"/><path d="M842,-94L653,-119L744,-80Z" fill="#faa908" stroke="#faa908" stroke-width="1.51"/><path d="M744,-80L653,-119L648,-18Z" fill="#faa708" stroke="#faa708" stroke-width="1.51"/><path d="M1272,4L1150,-5L1172,71Z" fill="#ff720a" stroke="#ff720a" stroke-width="1.51"/><path d="M1454,316L1367,285L1362,396Z" fill="#fc9b08" stroke="#fc9b08" stroke-width="1.51"/><path d="M274,95L178,121L261,225Z" fill="#fd8d09" stroke="#fd8d09" stroke-width="1.51"/><path d="M382,6L287,27L369,96Z" fill="#fe8509" stroke="#fe8509" stroke-width="1.51"/><path d="M283,-99L287,27L382,6Z" fill="#fe780a" stroke="#fe780a" stroke-width="1.51"/><path d="M1273,1129L1292,1002L1189,1019Z" fill="#ff640b" stroke="#ff640b" stroke-width="1.51"/><path d="M1464,791L1393,828L1496,895Z" fill="#ff550c" stroke="#ff550c" stroke-width="1.51"/><path d="M1353,874L1393,828L1293,827Z" fill="#ff640b" stroke="#ff640b" stroke-width="1.51"/><path d="M1071,-112L975,-107L980,-12Z" fill="#fe8709" stroke="#fe8709" stroke-width="1.51"/><path d="M1172,71L1150,-5L1097,20Z" fill="#fe7c0a" stroke="#fe7c0a" stroke-width="1.51"/><path d="M1291,89L1187,225L1284,217Z" fill="#fd8c08" stroke="#fd8c08" stroke-width="1.51"/><path d="M653,-119L554,-119L648,-18Z" fill="#fca008" stroke="#fca008" stroke-width="1.51"/><path d="M60,175L34,296L146,302Z" fill="#fd9008" stroke="#fd9008" stroke-width="1.51"/><path d="M166,8L178,121L274,95Z" fill="#ff790a" stroke="#ff790a" stroke-width="1.51"/><path d="M1103,1135L1196,1114L1189,1019Z" fill="#ff720a" stroke="#ff720a" stroke-width="1.51"/><path d="M1071,-112L980,-12L1097,20Z" fill="#fe8209" stroke="#fe8209" stroke-width="1.51"/><path d="M842,-94L975,-107L653,-119Z" fill="#fca008" stroke="#fca008" stroke-width="1.51"/><path d="M347,1094L269,1132L472,1099Z" fill="#fe7e0a" stroke="#fe7e0a" stroke-width="1.51"/><path d="M575,1131L269,1132L664,1135Z" fill="#fd9108" stroke="#fd9108" stroke-width="1.51"/><path d="M238,1029L269,1132L347,1094Z" fill="#ff730a" stroke="#ff730a" stroke-width="1.51"/><path d="M144,1099L269,1132L238,1029Z" fill="#ff690b" stroke="#ff690b" stroke-width="1.51"/><path d="M144,1099L238,1029L187,990Z" fill="#ff640b" stroke="#ff640b" stroke-width="1.51"/><path d="M554,-119L482,-117L449,7Z" fill="#fd9009" stroke="#fd9009" stroke-width="1.51"/><path d="M74,799L80,911L146,815Z" fill="#ff650b" stroke="#ff650b" stroke-width="1.51"/><path d="M-32,916L80,911L74,799Z" fill="#ff510c" stroke="#ff510c" stroke-width="1.51"/><path d="M1464,791L1454,710L1350,728Z" fill="#ff710b" stroke="#ff710b" stroke-width="1.51"/><path d="M1454,316L1394,203L1367,285Z" fill="#fd8c09" stroke="#fd8c09" stroke-width="1.51"/><path d="M1394,203L1291,89L1284,217Z" fill="#fe8209" stroke="#fe8209" stroke-width="1.51"/><path d="M1454,710L1477,604L1346,606Z" fill="#fd8709" stroke="#fd8709" stroke-width="1.51"/><path d="M60,175L146,302L170,211Z" fill="#fd9009" stroke="#fd9009" stroke-width="1.51"/><path d="M51,428L-26,517L67,520Z" fill="#faa807" stroke="#faa807" stroke-width="1.51"/><path d="M482,-117L386,-99L449,7Z" fill="#fd8909" stroke="#fd8909" stroke-width="1.51"/><path d="M75,84L60,175L178,121Z" fill="#ff760a" stroke="#ff760a" stroke-width="1.51"/><path d="M1367,285L1394,203L1284,217Z" fill="#fd8c09" stroke="#fd8c09" stroke-width="1.51"/><path d="M1454,316L1362,396L1489,376Z" fill="#fc9c08" stroke="#fc9c08" stroke-width="1.51"/><path d="M-43,407L-26,517L51,428Z" fill="#faac08" stroke="#faac08" stroke-width="1.51"/><path d="M1150,-5L1071,-112L1097,20Z" fill="#ff7a0a" stroke="#ff7a0a" stroke-width="1.51"/><path d="M975,-107L1155,-125L653,-119Z" fill="#fd9208" stroke="#fd9208" stroke-width="1.51"/><path d="M1155,-125L1071,-112L1150,-5Z" fill="#fe770a" stroke="#fe770a" stroke-width="1.51"/><path d="M1496,895L1393,828L1353,874Z" fill="#ff510c" stroke="#ff510c" stroke-width="1.51"/><path d="M1393,828L1464,791L1350,728Z" fill="#ff6a0a" stroke="#ff6a0a" stroke-width="1.51"/><path d="M1454,710L1566,730L1477,604Z" fill="#fe7c0a" stroke="#fe7c0a" stroke-width="1.51"/><path d="M1489,376L1362,396L1404,475Z" fill="#faa908" stroke="#faa908" stroke-width="1.51"/><path d="M1292,1002L1367,1002L1353,874Z" fill="#ff550c" stroke="#ff550c" stroke-width="1.51"/><path d="M1397,1099L1367,1002L1292,1002Z" fill="#ff520c" stroke="#ff520c" stroke-width="1.51"/><path d="M80,911L86,999L187,990Z" fill="#ff580c" stroke="#ff580c" stroke-width="1.51"/><path d="M-32,916L86,999L80,911Z" fill="#ff4a0c" stroke="#ff4a0c" stroke-width="1.51"/><path d="M-26,517L-44,594L64,604Z" fill="#fc9409" stroke="#fc9409" stroke-width="1.51"/><path d="M1196,1114L1273,1129L1189,1019Z" fill="#ff690b" stroke="#ff690b" stroke-width="1.51"/><path d="M1103,1135L1273,1129L1196,1114Z" fill="#ff6e0b" stroke="#ff6e0b" stroke-width="1.51"/><path d="M34,296L-43,407L51,428Z" fill="#fba008" stroke="#fba008" stroke-width="1.51"/><path d="M178,121L60,175L170,211Z" fill="#fe8409" stroke="#fe8409" stroke-width="1.51"/><path d="M166,8L274,95L287,27Z" fill="#fe770a" stroke="#fe770a" stroke-width="1.51"/><path d="M1477,604L1505,475L1404,475Z" fill="#fb9f08" stroke="#fb9f08" stroke-width="1.51"/><path d="M1566,476L1505,475L1477,604Z" fill="#fb9f08" stroke="#fb9f08" stroke-width="1.51"/><path d="M1505,475L1489,376L1404,475Z" fill="#faab08" stroke="#faab08" stroke-width="1.51"/><path d="M1497,124L1388,88L1394,203Z" fill="#ff6b0b" stroke="#ff6b0b" stroke-width="1.51"/><path d="M1369,16L1272,4L1291,89Z" fill="#ff640b" stroke="#ff640b" stroke-width="1.51"/><path d="M1291,89L1272,4L1172,71Z" fill="#ff730a" stroke="#ff730a" stroke-width="1.51"/><path d="M86,999L144,1099L187,990Z" fill="#ff5c0b" stroke="#ff5c0b" stroke-width="1.51"/><path d="M-26,517L-124,591L-44,594Z" fill="#fd9509" stroke="#fd9509" stroke-width="1.51"/><path d="M-24,304L-43,407L34,296Z" fill="#fd9609" stroke="#fd9609" stroke-width="1.51"/><path d="M-44,594L-47,731L64,604Z" fill="#fe8509" stroke="#fe8509" stroke-width="1.51"/><path d="M-65,801L-47,731L-152,776Z" fill="#ff670b" stroke="#ff670b" stroke-width="1.51"/><path d="M283,-99L166,8L287,27Z" fill="#ff6d0b" stroke="#ff6d0b" stroke-width="1.51"/><path d="M-46,213L34,296L60,175Z" fill="#fe800a" stroke="#fe800a" stroke-width="1.51"/><path d="M-46,213L-24,304L34,296Z" fill="#fd8809" stroke="#fd8809" stroke-width="1.51"/><path d="M386,-99L283,-99L382,6Z" fill="#fe7c0a" stroke="#fe7c0a" stroke-width="1.51"/><path d="M182,-124L283,-99L386,-99Z" fill="#ff730a" stroke="#ff730a" stroke-width="1.51"/><path d="M1247,-133L1155,-125L1150,-5Z" fill="#ff6e0b" stroke="#ff6e0b" stroke-width="1.51"/><path d="M1071,-112L1155,-125L975,-107Z" fill="#fe7f0a" stroke="#fe7f0a" stroke-width="1.51"/><path d="M653,-119L1247,-133L554,-119Z" fill="#fba008" stroke="#fba008" stroke-width="1.51"/><path d="M1394,203L1388,88L1291,89Z" fill="#ff730a" stroke="#ff730a" stroke-width="1.51"/><path d="M1272,4L1247,-133L1150,-5Z" fill="#ff690b" stroke="#ff690b" stroke-width="1.51"/><path d="M1495,199L1394,203L1454,316Z" fill="#fe8109" stroke="#fe8109" stroke-width="1.51"/><path d="M166,8L75,84L178,121Z" fill="#ff6e0b" stroke="#ff6e0b" stroke-width="1.51"/><path d="M-10,85L75,84L41,11Z" fill="#ff5b0b" stroke="#ff5b0b" stroke-width="1.51"/><path d="M-47,731L-65,801L74,799Z" fill="#ff650b" stroke="#ff650b" stroke-width="1.51"/><path d="M86,999L48,1092L144,1099Z" fill="#ff530c" stroke="#ff530c" stroke-width="1.51"/><path d="M-138,684L-47,731L-44,594Z" fill="#fe7f0a" stroke="#fe7f0a" stroke-width="1.51"/><path d="M1367,1002L1496,895L1353,874Z" fill="#ff480d" stroke="#ff480d" stroke-width="1.51"/><path d="M1583,620L1566,476L1477,604Z" fill="#fd9509" stroke="#fd9509" stroke-width="1.51"/><path d="M1455,1029L1496,895L1367,1002Z" fill="#ff400d" stroke="#ff400d" stroke-width="1.51"/><path d="M-65,801L-32,916L74,799Z" fill="#ff540c" stroke="#ff540c" stroke-width="1.51"/><path d="M1489,376L1570,306L1454,316Z" fill="#fd9509" stroke="#fd9509" stroke-width="1.51"/><path d="M1505,475L1558,398L1489,376Z" fill="#faa608" stroke="#faa608" stroke-width="1.51"/><path d="M1566,730L1454,710L1464,791Z" fill="#ff6e0b" stroke="#ff6e0b" stroke-width="1.51"/><path d="M1566,476L1558,398L1505,475Z" fill="#faac08" stroke="#faac08" stroke-width="1.51"/><path d="M1388,88L1369,16L1291,89Z" fill="#ff650b" stroke="#ff650b" stroke-width="1.51"/><path d="M1449,-10L1369,16L1388,88Z" fill="#ff530c" stroke="#ff530c" stroke-width="1.51"/><path d="M1273,1129L1397,1099L1292,1002Z" fill="#ff580c" stroke="#ff580c" stroke-width="1.51"/><path d="M1581,789L1566,730L1464,791Z" fill="#ff670b" stroke="#ff670b" stroke-width="1.51"/><path d="M1570,306L1495,199L1454,316Z" fill="#fd8909" stroke="#fd8909" stroke-width="1.51"/><path d="M1566,730L1583,620L1477,604Z" fill="#fe8309" stroke="#fe8309" stroke-width="1.51"/><path d="M1603,225L1570,306L1707,303Z" fill="#fe8a09" stroke="#fe8a09" stroke-width="1.51"/><path d="M-125,418L-26,517L-43,407Z" fill="#faac08" stroke="#faac08" stroke-width="1.51"/><path d="M-151,511L-124,591L-26,517Z" fill="#fc9b08" stroke="#fc9b08" stroke-width="1.51"/><path d="M-110,281L-125,418L-43,407Z" fill="#fc9c08" stroke="#fc9c08" stroke-width="1.51"/><path d="M-10,85L-46,213L60,175Z" fill="#ff6e0b" stroke="#ff6e0b" stroke-width="1.51"/><path d="M1496,895L1581,789L1464,791Z" fill="#ff580c" stroke="#ff580c" stroke-width="1.51"/><path d="M1397,1099L1455,1029L1367,1002Z" fill="#ff470d" stroke="#ff470d" stroke-width="1.51"/><path d="M-42,1024L48,1092L86,999Z" fill="#ff470d" stroke="#ff470d" stroke-width="1.51"/><path d="M144,1099L48,1092L269,1132Z" fill="#ff5e0b" stroke="#ff5e0b" stroke-width="1.51"/><path d="M-110,281L-43,407L-24,304Z" fill="#fd9409" stroke="#fd9409" stroke-width="1.51"/><path d="M1393,-108L1247,-133L1272,4Z" fill="#ff5b0b" stroke="#ff5b0b" stroke-width="1.51"/><path d="M1155,-125L1247,-133L653,-119Z" fill="#fe8609" stroke="#fe8609" stroke-width="1.51"/><path d="M-124,591L-138,684L-44,594Z" fill="#fe8909" stroke="#fe8909" stroke-width="1.51"/><path d="M-127,993L-42,1024L-32,916Z" fill="#ff400d" stroke="#ff400d" stroke-width="1.51"/><path d="M-32,916L-42,1024L86,999Z" fill="#ff410d" stroke="#ff410d" stroke-width="1.51"/><path d="M-151,511L-138,684L-124,591Z" fill="#fd8f09" stroke="#fd8f09" stroke-width="1.51"/><path d="M1679,680L1684,596L1583,620Z" fill="#fe8709" stroke="#fe8709" stroke-width="1.51"/><path d="M1595,873L1581,789L1496,895Z" fill="#ff500c" stroke="#ff500c" stroke-width="1.51"/><path d="M1558,398L1570,306L1489,376Z" fill="#fc9b08" stroke="#fc9b08" stroke-width="1.51"/><path d="M1495,199L1497,124L1394,203Z" fill="#ff730a" stroke="#ff730a" stroke-width="1.51"/><path d="M1570,306L1558,398L1659,374Z" fill="#fc9a08" stroke="#fc9a08" stroke-width="1.51"/><path d="M-125,418L-151,511L-26,517Z" fill="#fba608" stroke="#fba608" stroke-width="1.51"/><path d="M283,-99L182,-124L166,8Z" fill="#ff670b" stroke="#ff670b" stroke-width="1.51"/><path d="M75,84L-10,85L60,175Z" fill="#ff6a0b" stroke="#ff6a0b" stroke-width="1.51"/><path d="M482,-117L182,-124L386,-99Z" fill="#fe7c0a" stroke="#fe7c0a" stroke-width="1.51"/><path d="M554,-119L182,-124L482,-117Z" fill="#fe8409" stroke="#fe8409" stroke-width="1.51"/><path d="M1247,-133L182,-124L554,-119Z" fill="#fba508" stroke="#fba508" stroke-width="1.51"/><path d="M-46,213L-110,281L-24,304Z" fill="#fe8709" stroke="#fe8709" stroke-width="1.51"/><path d="M41,11L75,84L166,8Z" fill="#ff5d0c" stroke="#ff5d0c" stroke-width="1.51"/><path d="M1369,16L1393,-108L1272,4Z" fill="#ff540c" stroke="#ff540c" stroke-width="1.51"/><path d="M1603,225L1497,124L1495,199Z" fill="#ff740a" stroke="#ff740a" stroke-width="1.51"/><path d="M60,-96L41,11L166,8Z" fill="#ff520c" stroke="#ff520c" stroke-width="1.51"/><path d="M-148,191L-110,281L-46,213Z" fill="#fe7f0a" stroke="#fe7f0a" stroke-width="1.51"/><path d="M-125,418L-148,191L-151,511Z" fill="#fc9d08" stroke="#fc9d08" stroke-width="1.51"/><path d="M-138,926L-32,916L-65,801Z" fill="#ff470d" stroke="#ff470d" stroke-width="1.51"/><path d="M-138,684L-152,776L-47,731Z" fill="#ff710a" stroke="#ff710a" stroke-width="1.51"/><path d="M-151,511L-152,776L-138,684Z" fill="#fe8209" stroke="#fe8209" stroke-width="1.51"/><path d="M1588,992L1595,873L1496,895Z" fill="#ff400d" stroke="#ff400d" stroke-width="1.51"/><path d="M1679,680L1583,620L1566,730Z" fill="#fe7e0a" stroke="#fe7e0a" stroke-width="1.51"/><path d="M1659,374L1558,398L1566,476Z" fill="#faa608" stroke="#faa608" stroke-width="1.51"/><path d="M1588,992L1496,895L1455,1029Z" fill="#ff400d" stroke="#ff400d" stroke-width="1.51"/><path d="M1497,124L1449,-10L1388,88Z" fill="#ff560c" stroke="#ff560c" stroke-width="1.51"/><path d="M1547,78L1449,-10L1497,124Z" fill="#ff550c" stroke="#ff550c" stroke-width="1.51"/><path d="M-42,1024L-42,1088L48,1092Z" fill="#ff400d" stroke="#ff400d" stroke-width="1.51"/><path d="M48,1092L-121,1110L269,1132Z" fill="#ff4e0c" stroke="#ff4e0c" stroke-width="1.51"/><path d="M-121,1110L-42,1088L-42,1024Z" fill="#ff400d" stroke="#ff400d" stroke-width="1.51"/><path d="M1659,374L1566,476L1686,483Z" fill="#faab08" stroke="#faab08" stroke-width="1.51"/><path d="M1570,306L1603,225L1495,199Z" fill="#fe8209" stroke="#fe8209" stroke-width="1.51"/><path d="M-152,776L-138,926L-65,801Z" fill="#ff550c" stroke="#ff550c" stroke-width="1.51"/><path d="M1273,1129L1500,1116L1397,1099Z" fill="#ff4b0c" stroke="#ff4b0c" stroke-width="1.51"/><path d="M1397,1099L1500,1116L1455,1029Z" fill="#ff400d" stroke="#ff400d" stroke-width="1.51"/><path d="M-164,120L-148,191L-46,213Z" fill="#ff720a" stroke="#ff720a" stroke-width="1.51"/><path d="M41,11L-36,-18L-10,85Z" fill="#ff490d" stroke="#ff490d" stroke-width="1.51"/><path d="M182,-124L60,-96L166,8Z" fill="#ff5b0b" stroke="#ff5b0b" stroke-width="1.51"/><path d="M1684,596L1566,476L1583,620Z" fill="#fd9609" stroke="#fd9609" stroke-width="1.51"/><path d="M1493,-87L1393,-108L1449,-10Z" fill="#ff400d" stroke="#ff400d" stroke-width="1.51"/><path d="M1449,-10L1393,-108L1369,16Z" fill="#ff480d" stroke="#ff480d" stroke-width="1.51"/><path d="M1679,680L1566,730L1683,778Z" fill="#ff710a" stroke="#ff710a" stroke-width="1.51"/><path d="M1603,225L1547,78L1497,124Z" fill="#ff6a0b" stroke="#ff6a0b" stroke-width="1.51"/><path d="M1683,778L1581,789L1595,873Z" fill="#ff5c0b" stroke="#ff5c0b" stroke-width="1.51"/><path d="M1683,778L1566,730L1581,789Z" fill="#ff680b" stroke="#ff680b" stroke-width="1.51"/><path d="M1500,1116L1588,992L1455,1029Z" fill="#ff400d" stroke="#ff400d" stroke-width="1.51"/><path d="M-138,926L-127,993L-32,916Z" fill="#ff400d" stroke="#ff400d" stroke-width="1.51"/><path d="M-164,120L-46,213L-10,85Z" fill="#ff6a0b" stroke="#ff6a0b" stroke-width="1.51"/><path d="M-110,281L-148,191L-125,418Z" fill="#fd8d09" stroke="#fd8d09" stroke-width="1.51"/><path d="M1684,596L1686,483L1566,476Z" fill="#fb9f08" stroke="#fb9f08" stroke-width="1.51"/><path d="M-24,-76L-36,-18L41,11Z" fill="#ff400d" stroke="#ff400d" stroke-width="1.51"/><path d="M1684,596L1707,303L1686,483Z" fill="#faaa08" stroke="#faaa08" stroke-width="1.51"/><path d="M1679,680L1683,778L1684,596Z" fill="#fe7c0a" stroke="#fe7c0a" stroke-width="1.51"/><path d="M1669,888L1683,778L1595,873Z" fill="#ff520c" stroke="#ff520c" stroke-width="1.51"/><path d="M1588,992L1669,888L1595,873Z" fill="#ff400d" stroke="#ff400d" stroke-width="1.51"/><path d="M1690,989L1669,888L1588,992Z" fill="#ff400d" stroke="#ff400d" stroke-width="1.51"/><path d="M60,-96L-24,-76L41,11Z" fill="#ff460d" stroke="#ff460d" stroke-width="1.51"/><path d="M-127,16L-164,120L-10,85Z" fill="#ff580c" stroke="#ff580c" stroke-width="1.51"/><path d="M-127,16L-10,85L-36,-18Z" fill="#ff4a0c" stroke="#ff4a0c" stroke-width="1.51"/><path d="M-148,191L-164,120L-151,511Z" fill="#fd8909" stroke="#fd8909" stroke-width="1.51"/><path d="M-151,511L-164,120L-152,776Z" fill="#faa808" stroke="#faa808" stroke-width="1.51"/><path d="M1578,-33L1449,-10L1547,78Z" fill="#ff440d" stroke="#ff440d" stroke-width="1.51"/><path d="M1578,-33L1493,-87L1449,-10Z" fill="#ff400d" stroke="#ff400d" stroke-width="1.51"/><path d="M1683,120L1547,78L1603,225Z" fill="#ff6a0b" stroke="#ff6a0b" stroke-width="1.51"/><path d="M-138,926L-121,1110L-127,993Z" fill="#ff400d" stroke="#ff400d" stroke-width="1.51"/><path d="M-127,993L-121,1110L-42,1024Z" fill="#ff400d" stroke="#ff400d" stroke-width="1.51"/><path d="M-42,1088L-121,1110L48,1092Z" fill="#ff400d" stroke="#ff400d" stroke-width="1.51"/><path d="M-152,776L-121,1110L-138,926Z" fill="#ff400d" stroke="#ff400d" stroke-width="1.51"/><path d="M1659,374L1707,303L1570,306Z" fill="#fc9409" stroke="#fc9409" stroke-width="1.51"/><path d="M1686,483L1707,303L1659,374Z" fill="#fca008" stroke="#fca008" stroke-width="1.51"/><path d="M1683,778L1707,303L1684,596Z" fill="#fc9708" stroke="#fc9708" stroke-width="1.51"/><path d="M-162,-114L-127,16L-36,-18Z" fill="#ff400d" stroke="#ff400d" stroke-width="1.51"/><path d="M1500,1116L1598,1127L1588,992Z" fill="#ff400d" stroke="#ff400d" stroke-width="1.51"/><path d="M1273,1129L1598,1127L1500,1116Z" fill="#ff400d" stroke="#ff400d" stroke-width="1.51"/><path d="M1103,1135L1598,1127L1273,1129Z" fill="#ff580c" stroke="#ff580c" stroke-width="1.51"/><path d="M1707,303L1681,174L1603,225Z" fill="#fe800a" stroke="#fe800a" stroke-width="1.51"/><path d="M1663,-2L1578,-33L1547,78Z" fill="#ff450d" stroke="#ff450d" stroke-width="1.51"/><path d="M1655,1093L1690,989L1588,992Z" fill="#ff400d" stroke="#ff400d" stroke-width="1.51"/><path d="M1669,888L1690,989L1683,778Z" fill="#ff460d" stroke="#ff460d" stroke-width="1.51"/><path d="M1683,778L1690,989L1707,303Z" fill="#ff7a0a" stroke="#ff7a0a" stroke-width="1.51"/><path d="M1681,174L1683,120L1603,225Z" fill="#ff720a" stroke="#ff720a" stroke-width="1.51"/><path d="M1707,303L1683,120L1681,174Z" fill="#fe780a" stroke="#fe780a" stroke-width="1.51"/><path d="M1598,1127L1655,1093L1588,992Z" fill="#ff400d" stroke="#ff400d" stroke-width="1.51"/><path d="M1683,120L1663,-2L1547,78Z" fill="#ff550c" stroke="#ff550c" stroke-width="1.51"/><path d="M1578,-33L1607,-99L1493,-87Z" fill="#ff400d" stroke="#ff400d" stroke-width="1.51"/><path d="M1663,-2L1607,-99L1578,-33Z" fill="#ff400d" stroke="#ff400d" stroke-width="1.51"/><path d="M1493,-87L1667,-126L1393,-108Z" fill="#ff400d" stroke="#ff400d" stroke-width="1.51"/><path d="M1393,-108L1667,-126L1247,-133Z" fill="#ff410d" stroke="#ff410d" stroke-width="1.51"/><path d="M-24,-76L-162,-114L-36,-18Z" fill="#ff400d" stroke="#ff400d" stroke-width="1.51"/><path d="M-127,16L-162,-114L-164,120Z" fill="#ff430d" stroke="#ff430d" stroke-width="1.51"/><path d="M60,-96L-162,-114L-24,-76Z" fill="#ff400d" stroke="#ff400d" stroke-width="1.51"/><path d="M182,-124L-162,-114L60,-96Z" fill="#ff460d" stroke="#ff460d" stroke-width="1.51"/><path d="M1663,-2L1667,-126L1607,-99Z" fill="#ff400d" stroke="#ff400d" stroke-width="1.51"/><path d="M1607,-99L1667,-126L1493,-87Z" fill="#ff400d" stroke="#ff400d" stroke-width="1.51"/><path d="M1683,120L1667,-126L1663,-2Z" fill="#ff400d" stroke="#ff400d" stroke-width="1.51"/><path d="M1707,303L1667,-126L1683,120Z" fill="#ff5f0b" stroke="#ff5f0b" stroke-width="1.51"/></svg>
